<svg xmlns="http://www.w3.org/2000/svg" viewBox="0 0 124.27 88.66"><defs><style>.cls-1{fill:#4b4f50;}.cls-2,.cls-4{fill:none;}.cls-2{stroke:#fefbfb;stroke-linecap:round;stroke-linejoin:round;stroke-width:3px;}.cls-3{fill:#fefbfb;}.cls-4{stroke:#4b4f50;stroke-miterlimit:10;}</style></defs><title>Asset 3 (2)</title><g id="Layer_2" data-name="Layer 2"><g id="Layer_1-2" data-name="Layer 1"><path class="cls-1" d="M116.31,9.48H89.84L80.43,3a3,3,0,0,0-3-3H46.84a3,3,0,0,0-3,3L34.43,9.48h-8.8a2.19,2.19,0,0,0-2-3H14.15a2.19,2.19,0,0,0-2,3H8a3,3,0,0,0-3,3v64a3,3,0,0,0,3,3H116.31a3,3,0,0,0,3-3v-64A3,3,0,0,0,116.31,9.48Z"/><line class="cls-2" x1="1.5" y1="31.71" x2="122.77" y2="31.71"/><circle class="cls-1" cx="62.13" cy="55.44" r="33.22" transform="translate(-14.45 88.15) rotate(-64.87)"/><circle class="cls-3" cx="62.13" cy="55.44" r="29.57" transform="translate(-7.71 10.1) rotate(-8.75)"/><circle class="cls-1" cx="62.13" cy="55.44" r="23.3"/><circle class="cls-3" cx="62.13" cy="55.44" r="16.33" transform="translate(-7.68 10.05) rotate(-8.71)"/><path class="cls-1" d="M69.05,55.44a6.92,6.92,0,1,0-6.92,6.92A6.92,6.92,0,0,0,69.05,55.44Z"/><circle class="cls-4" cx="62.13" cy="55.44" r="10.05" transform="translate(-14.67 87.61) rotate(-64.47)"/><path class="cls-3" d="M74.73,2.9a.91.91,0,0,1-.91.91H50.45a.91.91,0,0,1-.91-.91h0A.91.91,0,0,1,50.45,2H73.82a.92.92,0,0,1,.91.92Z"/><rect class="cls-3" x="95.35" y="15.16" width="18.37" height="9.72" rx="3" ry="3"/></g></g></svg>